<svg id="visual" viewBox="0 0 900 600" width="900" height="600" xmlns="http://www.w3.org/2000/svg" xmlns:xlink="http://www.w3.org/1999/xlink" version="1.1"><g stroke-width="1" stroke-linejoin="bevel"><path d="M421 324.9L367 274.1L376 369.9Z" fill="#b24978" stroke="#b24978"></path><path d="M367 274.1L330 395.6L376 369.9Z" fill="#1f2744" stroke="#1f2744"></path><path d="M421 324.9L458 259.1L367 274.1Z" fill="#d05175" stroke="#d05175"></path><path d="M255 346.9L286 398.6L330 395.6Z" fill="#b24978" stroke="#b24978"></path><path d="M367 274.1L255 346.9L330 395.6Z" fill="#ff6f61" stroke="#ff6f61"></path><path d="M270 161.4L257 270.1L367 274.1Z" fill="#ff6f61" stroke="#ff6f61"></path><path d="M367 274.1L257 270.1L255 346.9Z" fill="#924377" stroke="#924377"></path><path d="M447 450.6L499 360.9L421 324.9Z" fill="#0d1c30" stroke="#0d1c30"></path><path d="M421 324.9L499 360.9L458 259.1Z" fill="#ea5e6d" stroke="#ea5e6d"></path><path d="M447 450.6L421 324.9L376 369.9Z" fill="#ea5e6d" stroke="#ea5e6d"></path><path d="M339 492.3L447 450.6L330 395.6Z" fill="#b24978" stroke="#b24978"></path><path d="M330 395.6L447 450.6L376 369.9Z" fill="#00101c" stroke="#00101c"></path><path d="M280 502.3L339 492.3L286 398.6Z" fill="#d05175" stroke="#d05175"></path><path d="M286 398.6L339 492.3L330 395.6Z" fill="#924377" stroke="#924377"></path><path d="M499 360.9L541 274.1L458 259.1Z" fill="#ea5e6d" stroke="#ea5e6d"></path><path d="M257 270.1L193 353.9L255 346.9Z" fill="#00101c" stroke="#00101c"></path><path d="M255 346.9L193 353.9L286 398.6Z" fill="#723e71" stroke="#723e71"></path><path d="M484 475.3L524 425.6L447 450.6Z" fill="#723e71" stroke="#723e71"></path><path d="M447 450.6L524 425.6L499 360.9Z" fill="#00101c" stroke="#00101c"></path><path d="M650 301.9L647 281.1L541 274.1Z" fill="#723e71" stroke="#723e71"></path><path d="M480 142.4L340 136.4L458 259.1Z" fill="#1f2744" stroke="#1f2744"></path><path d="M458 259.1L340 136.4L367 274.1Z" fill="#b24978" stroke="#b24978"></path><path d="M257 270.1L176 229.1L193 353.9Z" fill="#ff6f61" stroke="#ff6f61"></path><path d="M433 600L484 475.3L447 450.6Z" fill="#723e71" stroke="#723e71"></path><path d="M340 136.4L270 161.4L367 274.1Z" fill="#373056" stroke="#373056"></path><path d="M541 274.1L519 190.4L458 259.1Z" fill="#373056" stroke="#373056"></path><path d="M184 494.3L280 502.3L286 398.6Z" fill="#d05175" stroke="#d05175"></path><path d="M433 600L527 499.3L484 475.3Z" fill="#00101c" stroke="#00101c"></path><path d="M473 62.7L323 121.7L340 136.4Z" fill="#533866" stroke="#533866"></path><path d="M340 136.4L323 121.7L270 161.4Z" fill="#1f2744" stroke="#1f2744"></path><path d="M519 190.4L480 142.4L458 259.1Z" fill="#723e71" stroke="#723e71"></path><path d="M194 190.4L257 270.1L270 161.4Z" fill="#ea5e6d" stroke="#ea5e6d"></path><path d="M194 190.4L176 229.1L257 270.1Z" fill="#924377" stroke="#924377"></path><path d="M208 124.7L194 190.4L270 161.4Z" fill="#ea5e6d" stroke="#ea5e6d"></path><path d="M433 600L447 450.6L339 492.3Z" fill="#924377" stroke="#924377"></path><path d="M484 475.3L527 499.3L524 425.6Z" fill="#d05175" stroke="#d05175"></path><path d="M524 425.6L625 436.6L499 360.9Z" fill="#d05175" stroke="#d05175"></path><path d="M193 353.9L184 494.3L286 398.6Z" fill="#b24978" stroke="#b24978"></path><path d="M149 463.6L184 494.3L193 353.9Z" fill="#924377" stroke="#924377"></path><path d="M272 63.7L208 124.7L270 161.4Z" fill="#0d1c30" stroke="#0d1c30"></path><path d="M194 190.4L70 217.1L176 229.1Z" fill="#723e71" stroke="#723e71"></path><path d="M88 369.9L149 463.6L193 353.9Z" fill="#924377" stroke="#924377"></path><path d="M527 499.3L625 436.6L524 425.6Z" fill="#ff6f61" stroke="#ff6f61"></path><path d="M541 274.1L593 133.4L519 190.4Z" fill="#924377" stroke="#924377"></path><path d="M650 301.9L541 274.1L499 360.9Z" fill="#723e71" stroke="#723e71"></path><path d="M532 50.7L473 62.7L480 142.4Z" fill="#00101c" stroke="#00101c"></path><path d="M323 121.7L272 63.7L270 161.4Z" fill="#533866" stroke="#533866"></path><path d="M318 0L272 63.7L323 121.7Z" fill="#723e71" stroke="#723e71"></path><path d="M625 436.6L650 301.9L499 360.9Z" fill="#ea5e6d" stroke="#ea5e6d"></path><path d="M593 133.4L480 142.4L519 190.4Z" fill="#b24978" stroke="#b24978"></path><path d="M480 142.4L473 62.7L340 136.4Z" fill="#723e71" stroke="#723e71"></path><path d="M269 600L327 600L280 502.3Z" fill="#723e71" stroke="#723e71"></path><path d="M280 502.3L327 600L339 492.3Z" fill="#ff6f61" stroke="#ff6f61"></path><path d="M327 600L433 600L339 492.3Z" fill="#b24978" stroke="#b24978"></path><path d="M527 499.3L627 507.3L625 436.6Z" fill="#373056" stroke="#373056"></path><path d="M176 229.1L88 369.9L193 353.9Z" fill="#723e71" stroke="#723e71"></path><path d="M70 217.1L88 369.9L176 229.1Z" fill="#373056" stroke="#373056"></path><path d="M647 281.1L593 133.4L541 274.1Z" fill="#723e71" stroke="#723e71"></path><path d="M165 600L269 600L184 494.3Z" fill="#0d1c30" stroke="#0d1c30"></path><path d="M184 494.3L269 600L280 502.3Z" fill="#533866" stroke="#533866"></path><path d="M71 445.6L105 473.3L149 463.6Z" fill="#373056" stroke="#373056"></path><path d="M149 463.6L105 473.3L184 494.3Z" fill="#00101c" stroke="#00101c"></path><path d="M593 133.4L532 50.7L480 142.4Z" fill="#373056" stroke="#373056"></path><path d="M473 62.7L318 0L323 121.7Z" fill="#533866" stroke="#533866"></path><path d="M555 600L627 507.3L527 499.3Z" fill="#373056" stroke="#373056"></path><path d="M625 436.6L706 380.9L650 301.9Z" fill="#00101c" stroke="#00101c"></path><path d="M81 134.4L194 190.4L208 124.7Z" fill="#b24978" stroke="#b24978"></path><path d="M81 134.4L70 217.1L194 190.4Z" fill="#1f2744" stroke="#1f2744"></path><path d="M700 206.4L612 106.7L593 133.4Z" fill="#723e71" stroke="#723e71"></path><path d="M593 133.4L612 106.7L532 50.7Z" fill="#1f2744" stroke="#1f2744"></path><path d="M0 381.9L71 445.6L88 369.9Z" fill="#373056" stroke="#373056"></path><path d="M88 369.9L71 445.6L149 463.6Z" fill="#b24978" stroke="#b24978"></path><path d="M456 0L318 0L473 62.7Z" fill="#ff6f61" stroke="#ff6f61"></path><path d="M76 89.7L81 134.4L208 124.7Z" fill="#924377" stroke="#924377"></path><path d="M627 507.3L682 433.6L625 436.6Z" fill="#1f2744" stroke="#1f2744"></path><path d="M739 223.1L700 206.4L647 281.1Z" fill="#0d1c30" stroke="#0d1c30"></path><path d="M647 281.1L700 206.4L593 133.4Z" fill="#533866" stroke="#533866"></path><path d="M532 50.7L456 0L473 62.7Z" fill="#00101c" stroke="#00101c"></path><path d="M433 600L555 600L527 499.3Z" fill="#0d1c30" stroke="#0d1c30"></path><path d="M682 433.6L706 380.9L625 436.6Z" fill="#533866" stroke="#533866"></path><path d="M739 223.1L647 281.1L650 301.9Z" fill="#ea5e6d" stroke="#ea5e6d"></path><path d="M221 0L208 124.7L272 63.7Z" fill="#0d1c30" stroke="#0d1c30"></path><path d="M102 600L165 600L184 494.3Z" fill="#ff6f61" stroke="#ff6f61"></path><path d="M102 600L184 494.3L105 473.3Z" fill="#723e71" stroke="#723e71"></path><path d="M318 0L229 0L272 63.7Z" fill="#533866" stroke="#533866"></path><path d="M229 0L221 0L272 63.7Z" fill="#533866" stroke="#533866"></path><path d="M555 600L627 600L627 507.3Z" fill="#ff6f61" stroke="#ff6f61"></path><path d="M627 507.3L749 553.3L682 433.6Z" fill="#1f2744" stroke="#1f2744"></path><path d="M825 408.6L797 308.9L706 380.9Z" fill="#924377" stroke="#924377"></path><path d="M116 0L76 89.7L208 124.7Z" fill="#00101c" stroke="#00101c"></path><path d="M0 208.4L0 228.1L70 217.1Z" fill="#723e71" stroke="#723e71"></path><path d="M0 228.1L0 381.9L88 369.9Z" fill="#ff6f61" stroke="#ff6f61"></path><path d="M0 536.3L102 600L105 473.3Z" fill="#0d1c30" stroke="#0d1c30"></path><path d="M0 228.1L88 369.9L70 217.1Z" fill="#533866" stroke="#533866"></path><path d="M797 308.9L739 223.1L650 301.9Z" fill="#1f2744" stroke="#1f2744"></path><path d="M682 0L657 0L612 106.7Z" fill="#ea5e6d" stroke="#ea5e6d"></path><path d="M612 106.7L576 0L532 50.7Z" fill="#ea5e6d" stroke="#ea5e6d"></path><path d="M532 50.7L576 0L456 0Z" fill="#d05175" stroke="#d05175"></path><path d="M657 0L576 0L612 106.7Z" fill="#723e71" stroke="#723e71"></path><path d="M0 208.4L70 217.1L81 134.4Z" fill="#533866" stroke="#533866"></path><path d="M0 536.3L105 473.3L71 445.6Z" fill="#00101c" stroke="#00101c"></path><path d="M0 45.7L0 208.4L81 134.4Z" fill="#723e71" stroke="#723e71"></path><path d="M0 381.9L0 458.6L71 445.6Z" fill="#00101c" stroke="#00101c"></path><path d="M221 0L116 0L208 124.7Z" fill="#ff6f61" stroke="#ff6f61"></path><path d="M76 89.7L0 45.7L81 134.4Z" fill="#d05175" stroke="#d05175"></path><path d="M706 380.9L797 308.9L650 301.9Z" fill="#1f2744" stroke="#1f2744"></path><path d="M825 408.6L706 380.9L682 433.6Z" fill="#ea5e6d" stroke="#ea5e6d"></path><path d="M750 90.7L612 106.7L700 206.4Z" fill="#723e71" stroke="#723e71"></path><path d="M750 90.7L700 206.4L801 153.4Z" fill="#00101c" stroke="#00101c"></path><path d="M0 458.6L0 536.3L71 445.6Z" fill="#1f2744" stroke="#1f2744"></path><path d="M729 600L749 553.3L627 507.3Z" fill="#ea5e6d" stroke="#ea5e6d"></path><path d="M801 153.4L700 206.4L739 223.1Z" fill="#924377" stroke="#924377"></path><path d="M750 90.7L682 0L612 106.7Z" fill="#b24978" stroke="#b24978"></path><path d="M627 600L729 600L627 507.3Z" fill="#1f2744" stroke="#1f2744"></path><path d="M797 308.9L821 255.1L739 223.1Z" fill="#b24978" stroke="#b24978"></path><path d="M900 318.9L821 255.1L797 308.9Z" fill="#373056" stroke="#373056"></path><path d="M821 255.1L801 153.4L739 223.1Z" fill="#723e71" stroke="#723e71"></path><path d="M750 90.7L833 0L682 0Z" fill="#1f2744" stroke="#1f2744"></path><path d="M813 504.3L682 433.6L749 553.3Z" fill="#924377" stroke="#924377"></path><path d="M813 504.3L825 408.6L682 433.6Z" fill="#ea5e6d" stroke="#ea5e6d"></path><path d="M116 0L0 45.7L76 89.7Z" fill="#00101c" stroke="#00101c"></path><path d="M0 536.3L0 600L102 600Z" fill="#0d1c30" stroke="#0d1c30"></path><path d="M782 600L813 504.3L749 553.3Z" fill="#ff6f61" stroke="#ff6f61"></path><path d="M116 0L0 0L0 45.7Z" fill="#1f2744" stroke="#1f2744"></path><path d="M729 600L782 600L749 553.3Z" fill="#d05175" stroke="#d05175"></path><path d="M900 214.1L801 153.4L821 255.1Z" fill="#0d1c30" stroke="#0d1c30"></path><path d="M900 137.4L832 77.7L801 153.4Z" fill="#d05175" stroke="#d05175"></path><path d="M801 153.4L832 77.7L750 90.7Z" fill="#373056" stroke="#373056"></path><path d="M825 408.6L900 318.9L797 308.9Z" fill="#924377" stroke="#924377"></path><path d="M900 447.6L900 318.9L825 408.6Z" fill="#533866" stroke="#533866"></path><path d="M900 447.6L825 408.6L813 504.3Z" fill="#1f2744" stroke="#1f2744"></path><path d="M900 318.9L900 214.1L821 255.1Z" fill="#ff6f61" stroke="#ff6f61"></path><path d="M900 519.3L900 447.6L813 504.3Z" fill="#533866" stroke="#533866"></path><path d="M900 214.1L900 137.4L801 153.4Z" fill="#924377" stroke="#924377"></path><path d="M832 77.7L833 0L750 90.7Z" fill="#b24978" stroke="#b24978"></path><path d="M900 64.7L833 0L832 77.7Z" fill="#b24978" stroke="#b24978"></path><path d="M900 600L900 519.3L813 504.3Z" fill="#d05175" stroke="#d05175"></path><path d="M900 137.4L900 64.7L832 77.7Z" fill="#373056" stroke="#373056"></path><path d="M782 600L900 600L813 504.3Z" fill="#533866" stroke="#533866"></path><path d="M900 64.7L900 0L833 0Z" fill="#ff6f61" stroke="#ff6f61"></path></g></svg>